<?xml version="1.0" encoding="UTF-8" standalone="no"?>
<svg
   version="1.1"
   id="svg39"
   width="823.86383"
   height="621.42145"
   viewBox="0 0 823.86383 621.42145"
   xml:space="preserve"
   xmlns="http://www.w3.org/2000/svg"
   xmlns:svg="http://www.w3.org/2000/svg"><defs
     id="defs43" />
  <g
     id="layer1"
     style="display:inline"><path
       d="m 37.813572,211.54712 74.065288,3.05344 -11.83531,296.3905 -74.065284,-3.43672 z"
       id="team_jap" /><path
       d="m 316.56541,281.07893 105.82256,3.2398 -0.53978,67.75914 -106.63222,-4.04947 z"
       id="salle_de_conference" /><path
       d="m 334.38262,430.81778 42.92255,1.35057 -1.07955,37.79353 -43.73335,-1.61934 z"
       id="scene" /><path
       d="m 375.84004,476.32516 c -0.45849,-0.0145 -1.14504,0.76336 -1.14504,0.76336 v 13.55287 l 11.83451,13.93536 49.63131,1.71756 12.21619,-12.78951 v -15.08039 c -25.47677,-0.91435 -51.24342,-1.43533 -72.53697,-2.09925 z"
       id="vip" /><path
       d="m 500.2984,510.55908 h 19.47133 v 20.23388 l -19.47133,-0.38168 z"
       id="photocall" /><path
       d="m 399.87557,223.52056 85.13643,1.90921 -2.48173,52.68475 -81.31802,-4.39013 z"
       id="vestiaires_cosplay" /><path
       d="m 566.33322,294.97636 h 31.11499 v 28.25159 l -31.11499,-0.38169 z"
       id="cabine_cosplay_libre" /><path
       d="m 545.45549,54.054357 38.46882,0.06747 v 30.842469 l -38.46882,-0.202417 z"
       id="vestiaires" /><path
       d="M 588.07227,41.968944 744.6669,26.60229 748.19864,57.048939 590.84105,71.17473 Z"
       id="zone_restauration" /><path
       d="m 565.79402,324.07601 31.71989,0.26989 v 33.33979 l -31.71989,-2.8344 z"
       id="toilettes_1" /><path
       d="m 342.34234,364.31495 37.03224,1.81339 -1.04962,28.53784 -37.50974,-1.71796 z"
       id="toilettes_2" /><path
       d="m 473.44503,476.2992 -27.26559,-1.08013 2.96935,-77.34246 26.86075,0.81023 z"
       id="snack_bar" /><path
       d="m 128.39495,108.38264 17.9438,-1.81338 1.62254,18.51632 -18.13464,2.00423 z"
       id="0" /><path
       d="m 187.9863,102.84707 17.9434,-1.71796 1.9088,18.32508 -18.22966,1.4317 z"
       id="1" /><path
       d="m 225.59106,99.124482 2.00423,18.038818 -18.13424,1.52713 -1.71797,-17.9434 z"
       id="2" /><path
       d="m 244.96617,97.311098 1.9088,18.038822 -17.75256,1.52712 -1.62254,-17.752558 z"
       id="3" /><path
       d="m 246.84423,97.406119 26.4378,-2.481326 1.62254,17.943397 -26.34238,2.48173 z"
       id="4" /><path
       d="m 292.65713,93.683931 1.71797,17.943399 -17.75256,1.71797 -1.71837,-17.943405 z"
       id="5" /><path
       d="m 311.71403,91.615427 1.81339,18.134643 -17.75256,1.62254 -1.52712,-18.039219 z"
       id="6" /><path
       d="m 330.99571,89.897463 1.71797,17.943397 -17.84798,1.62255 -1.62255,-18.038824 z"
       id="7" /><path
       d="m 349.98914,88.179499 1.81338,17.752561 -17.75256,1.62254 -1.62254,-17.847977 z"
       id="8" /><path
       d="m 369.26882,86.174875 1.71796,18.039225 -17.65714,1.62254 -1.71796,-18.039221 z"
       id="9" /><path
       d="m 381.04224,84.138311 68.62394,-6.681015 1.71796,18.038821 -68.52851,6.681413 z"
       id="10" /><path
       d="m 468.85164,75.643912 1.62254,18.134241 -17.65714,1.527124 -1.71796,-17.847981 z"
       id="11" /><path
       d="m 136.63023,181.17752 34.64594,-4.00885 2.29089,18.23006 -35.21886,3.72219 z"
       id="12" /><path
       d="m 190.07875,174.40109 2.29049,18.13424 -17.75256,2.09964 -2.19506,-17.9434 z"
       id="13" /><path
       d="m 215.21341,172.5877 17.65714,-1.81378 1.71796,18.03922 -17.56172,1.52712 z"
       id="14" /><path
       d="m 243.43385,170.86934 47.34003,-4.48555 1.71836,17.84798 -47.245,4.39013 z"
       id="15" /><path
       d="m 318.2645,163.03769 33.40587,-2.48093 1.14504,17.94301 -33.40507,2.29088 z"
       id="16" /><path
       d="m 378.48985,158.50742 17.75256,-1.24086 1.24086,18.03882 -17.84798,1.14545 z"
       id="17" /><path
       d="m 415.42667,155.93028 1.14545,17.9434 -17.84798,1.05002 -1.05003,-18.03882 z"
       id="18" /><path
       d="m 434.51552,154.594 1.33628,18.13464 -17.84798,1.04962 -1.14544,-18.13424 z"
       id="19" /><path
       d="m 453.89062,153.25771 1.24086,18.03922 -17.4663,0.95421 -1.33628,-17.75256 z"
       id="20" /><path
       d="m 454.7518,132.60901 17.65754,-1.24086 1.33588,18.13464 -17.84798,0.85878 z"
       id="21" /><path
       d="m 507.53238,129.07766 1.14544,18.03882 -33.21463,2.19547 -1.24087,-18.03922 z"
       id="22" /><path
       d="m 547.64801,106.14166 h 17.65714 v 18.03883 l -17.65714,-0.0954 z"
       id="23" /><path
       d="m 592.47717,104.96468 34.35968,-3.53135 1.71796,18.13424 -34.4551,3.34051 z"
       id="24" /><path
       d="m 633.2316,100.47873 34.26466,-3.245086 1.81338,17.847976 -34.36007,3.24509 z"
       id="25" /><path
       d="m 741.56274,78.144801 17.75256,-1.686423 7.0631,72.920642 -17.9434,1.71796 z"
       id="26" /><path
       d="m 625.98845,146.6833 17.65714,0.0954 v 49.05799 l -17.75256,-0.19084 z"
       id="27" /><path
       d="m 669.61467,153.75198 h 17.56212 l 0.19084,35.8876 -17.75296,-0.19164 z"
       id="29" /><path
       d="m 669.61467,191.04014 17.75216,0.19084 v 17.75217 l -17.75216,-0.19085 z"
       id="31" /><path
       d="m 669.61467,210.50987 17.9438,0.19084 -0.19084,17.9438 -17.75296,-0.19084 z"
       id="32" /><path
       d="m 647.66242,240.8607 31.11419,0.19084 -0.19084,17.75296 -30.92335,-0.19084 z"
       id="33" /><path
       d="m 625.90101,240.8607 h 17.9438 v 17.75296 h -17.75296 z"
       id="34" /><path
       d="m 570.16121,140.83551 48.86794,0.19084 v 24.43398 l -49.05878,-0.19084 z"
       id="35" /><path
       d="m 601.2762,167.94125 17.943,0.19164 v 36.07765 l -18.13385,-0.19085 z"
       id="36" /><path
       d="m 601.46704,220.62681 h 17.9438 v 35.8868 l -18.13464,-0.38168 z"
       id="38" /><path
       d="m 570.54289,170.80466 h 17.37128 l 0.19084,44.28618 L 570.54289,214.9 Z"
       id="37" /><path
       d="m 570.16121,220.62601 18.13464,0.19084 -0.38168,35.8876 -17.75296,-0.19163 z"
       id="39" /><path
       d="m 592.68598,263.57871 h 29.01494 v 19.66136 l -28.8241,-0.19084 z"
       id="40" /><path
       d="m 546.87307,129.89133 h 17.943 l -0.19084,124.26752 h -17.56132 z"
       id="41" /><path
       d="m 547.82728,360.9968 h 17.75295 v 18.51632 l -17.9438,-0.19084 z"
       id="42" /><path
       d="m 547.82728,396.50192 h 17.75295 l -0.19084,17.943 -17.9438,-0.19084 z"
       id="43" /><path
       d="m 568.06116,396.31108 h 17.56212 l -0.19084,18.51552 -17.37048,-0.19084 z"
       id="44" /><path
       d="m 612.53818,397.26449 17.75296,0.19084 0.19084,17.75296 -17.75296,-0.19085 z"
       id="45" /><path
       d="m 642.31729,397.26449 17.56132,0.19084 0.19084,17.9438 -17.943,-0.57253 z"
       id="46_a" /><path
       d="m 671.52307,397.26449 h 36.07765 v 18.13464 l -36.07765,-0.38169 z"
       id="60" /><path
       d="m 708.9366,397.26449 h 17.943 v 17.943 l -17.943,0.19084 z"
       id="46_c" /><path
       d="m 662.93206,433.59765 87.99983,0.19084 v 30.35162 l -87.61815,-0.38248 z"
       id="47" /><path
       d="m 616.54663,433.78849 36.07764,-0.19084 -0.19084,18.32548 -35.69596,-0.19084 z"
       id="46_b" /><path
       d="m 579.89647,432.4518 h 17.943 l -0.19084,17.75296 -17.56132,0.19084 z"
       id="49" /><path
       d="m 559.47174,432.4526 h 17.943 v 17.75216 h -17.56132 z"
       id="50" /><path
       d="m 561.57099,475.46758 h 17.56212 l 0.19084,17.75296 -17.9438,0.19084 z"
       id="51" /><path
       d="m 579.13311,512.50022 v -17.75296 l -17.75296,-0.19084 0.19084,17.56212 z"
       id="52" /><path
       d="m 611.91911,481.75401 32.12473,-0.26989 v 18.0871 l -31.98979,-0.13495 z"
       id="53" /><path
       d="m 646.33846,481.75401 h 17.68226 v 17.95215 l -17.81721,-0.13494 z"
       id="54" /><path
       d="m 666.31478,481.48412 17.54732,0.13494 v 17.81721 h -17.54732 z"
       id="55" /><path
       d="m 712.39329,482.53826 h 17.75216 v 17.943 h -17.943 z"
       id="56" /><path
       d="m 732.43633,482.53826 17.75216,-0.19164 v 18.13464 l -17.75216,-0.38168 z"
       id="57" /><path
       d="M 745.22584,528.92368 H 762.978 v 17.943 l -17.56132,-0.19084 z"
       id="58" /><path
       d="m 725.75452,528.92368 17.75296,-0.19084 0.19084,18.13384 -17.75296,-0.38168 z"
       id="59" /><path
       d="m 777.59877,406.36128 18.70716,-1.52672 3.94166,53.6487 -18.09243,2.17961 z"
       id="48" /><path
       d="m 684.52259,531.46929 17.37128,-0.19084 0.19084,18.13464 -17.75296,-0.38168 z"
       id="61" /><path
       d="m 630.3103,534.14185 35.31428,0.19084 -0.19084,17.9438 -35.12344,-0.38248 z"
       id="62" /><path
       d="m 758.20539,565.44689 35.8868,-0.19084 0.19084,18.13464 -36.07764,-0.19084 z"
       id="100" /><path
       d="m 472.03404,510.74282 19.16722,0.13495 0.13495,19.84194 h -19.30217 z"
       id="64" /><path
       d="m 501.35641,379.96188 19.66137,-0.38248 0.19084,19.853 -19.85301,0.19084 z"
       id="65" /><path
       d="m 464.70625,320.97699 19.47052,-0.19084 0.19084,20.04304 -19.47052,-0.19084 z"
       id="66" /><path
       d="m 426.14688,294.82545 h 19.66137 l -0.19085,19.66136 -19.47052,-0.19084 z"
       id="67" /><path
       d="m 294.18493,322.30536 19.43654,0.26989 -0.26989,19.43654 -19.30159,-0.26989 z"
       id="68" /><path
       d="m 294.18493,290.58547 19.3016,-0.13495 -0.13495,19.84138 -19.16721,0.13551 z"
       id="69" />
  </g>
</svg>
