<?xml version="1.0" encoding="UTF-8" standalone="no"?>
<svg
   version="1.1"
   id="svg39"
   width="2048"
   height="1448"
   viewBox="0 0 2048 1448"
   xml:space="preserve"
   xmlns="http://www.w3.org/2000/svg"
   xmlns:svg="http://www.w3.org/2000/svg"><defs
   id="defs43" />&#10;  <g
   id="layer1"
   style="display:inline"
   transform="matrix(2.6450744,0,0,2.6006289,-68.714447,-69.182684)"><path
   d="m 369.03075,290.32348 90.24871,2.38991 -0.46034,49.98399 -90.93921,-2.98718 z"
   id="salle_de_conference"
   style="stroke-width:0.793164" /><path
   d="m 383.80146,413.82413 36.00912,1.14887 -0.90567,32.14941 -36.68933,-1.3775 z"
   id="scene"
   style="stroke-width:0.844775" /><path
   d="m 418.42999,452.26212 c -0.3853,-0.0126 -0.96225,0.66294 -0.96225,0.66294 v 11.76997 l 9.94526,12.10213 41.70823,1.49161 10.26602,-11.10702 v -13.09654 c -21.40969,-0.79406 -43.06299,-1.24651 -60.95726,-1.82309 z"
   id="vip"
   style="stroke-width:0.854289" /><path
   d="m 502.5707,490.1667 h 27.09022 v 28.25488 L 502.5707,517.8886 Z"
   id="photocall"
   style="stroke-width:1.39385" /><path
   d="m 439.19393,234.47945 72.09332,1.66716 -2.10152,46.0054 -66.4025,-3.64129 z"
   id="vestiaires_cosplay"
   style="stroke-width:0.859907" /><path
   d="m 370.291,499.70679 h 20.22131 V 520.1413 L 370.291,519.86522 Z"
   id="cabine_cosplay_libre"
   style="stroke-width:0.685615" /><path
   d="m 563.03534,90.968505 31.66372,0.05572 v 25.470905 l -31.66372,-0.16716 z"
   id="vestiaires"
   style="stroke-width:0.824469" /><path
   d="m 707.89474,119.80174 44.18252,-2.72338 4.38397,53.6209 -25.9052,1.33143 -3.41764,-29.12795 -16.7422,1.07467 z"
   id="zone_restauration" /><path
   d="m 579.02684,321.90082 26.64063,0.22731 v 28.08035 l -26.64063,-2.38726 z"
   id="toilettes_1"
   style="stroke-width:0.841058" /><path
   d="m 391.47938,356.29395 32.53925,1.55347 -0.92227,24.44739 -32.95882,-1.47172 z"
   id="toilettes_2"
   style="stroke-width:0.8676" /><path
   d="m 502.16118,455.49897 -23.23386,-0.95654 2.53028,-68.4934 22.88888,0.71753 z"
   id="snack_bar"
   style="stroke-width:0.868698" /><path
   d="m 207.52452,135.53326 22.84703,-2.31796 2.0659,23.66851 -23.09001,2.56191 z"
   id="0"
   style="stroke-width:1.27575" /><path
   d="m 252.81374,130.10488 15.0439,-1.58201 1.60035,16.87496 -15.2839,1.3184 z"
   id="1"
   style="stroke-width:0.878674" /><path
   d="m 283.47177,126.85812 1.5994,16.53475 -14.47131,1.3998 -1.37096,-16.4473 z"
   id="2"
   style="stroke-width:0.855262" /><path
   d="m 300.06602,125.18067 1.5447,16.4668 -15.60932,1.39979 -1.42665,-16.27237 z"
   id="3"
   style="stroke-width:0.897752" /><path
   d="m 301.04531,125.11689 16.14311,-1.57479 1.49138,16.60678 -16.21659,1.50721 z"
   id="4"
   style="stroke-width:0.779575" /><path
   d="m 325.92258,122.86572 16.14311,-1.57479 1.49138,16.60678 -16.21659,1.50721 z"
   id="4-8"
   style="display:inline;stroke-width:0.779575" /><path
   d="m 363.3894,118.83453 1.49389,16.8888 -15.43706,1.617 -1.49424,-16.8888 z"
   id="5"
   style="stroke-width:0.904688" /><path
   d="m 378.96297,117.24185 1.53052,16.63723 -14.98332,1.48856 -1.2889,-16.54969 z"
   id="6"
   style="stroke-width:0.879953" /><path
   d="m 395.96468,115.79578 1.57644,16.38496 -16.37767,1.48163 -1.48888,-16.4721 z"
   id="7"
   style="stroke-width:0.915381" /><path
   d="m 412.81555,114.28174 1.67577,16.38235 -16.40538,1.49731 -1.49941,-16.4704 z"
   id="8"
   style="stroke-width:0.923465" /><path
   d="m 477.16136,107.17903 1.69293,16.57116 -62.72722,6.21743 -1.55927,-16.36724 z"
   id="9"
   style="stroke-width:1.10474" /><path
   d="m 482.36017,106.50195 15.69267,-1.58292 1.7848,15.99959 -16.1319,1.65129 z"
   id="10" /><path
   d="m 486.69424,172.16783 1.2232,16.12735 -33.0072,3.0582 -1.47203,-16.81153 z"
   id="11"
   style="stroke-width:1.06192" /><path
   d="m 432.29681,176.67938 16.32466,-1.414 1.36444,16.07557 -15.93071,1.66226 z"
   id="12"
   style="stroke-width:0.702659" /><path
   d="m 431.10227,176.93547 1.4885,16.29892 -16.21542,1.28395 -1.4599,-16.31201 z"
   id="13" /><path
   d="m 369.72994,180.53041 30.07877,-2.27929 1.45983,16.58821 -30.19078,2.29838 z"
   id="14"
   style="stroke-width:1.19813" /><path
   d="m 307.59296,187.59109 40.92412,-3.26201 1.85202,16.35254 -41.63107,3.43849 z"
   id="15" /><path
   d="m 279.23437,190.75465 16.32026,-1.24072 1.12155,16.73486 -15.91886,0.78005 z"
   id="16"
   style="stroke-width:0.713518" /><path
   d="m 262.50282,192.56278 16.32026,-1.24072 1.12155,16.73486 -15.91886,0.78005 z"
   id="16-6"
   style="display:inline;stroke-width:0.713518" /><path
   d="m 245.62702,194.2837 16.50324,-1.12655 1.15353,16.377 -16.59194,1.03993 z"
   id="17"
   style="stroke-width:0.918686" /><path
   d="m 244.80961,194.9477 1.07254,16.14533 -16.17718,1.35265 -1.38419,-16.09524 z"
   id="18"
   style="stroke-width:0.917886" /><path
   d="m 227.33505,196.0585 1.33628,16.6392 -16.244,1.72937 -1.81377,-16.9107 z"
   id="19" /><path
   d="m 197.65516,213.89105 0.0379,19.26276 -18.80295,-0.13338 3.7e-4,-19.38395 z"
   id="20" /><path
   d="m 562.35198,128.93838 19.12785,-0.0173 -0.13443,19.22224 -18.64997,-0.22882 z"
   id="21" /><path
   d="m 625.82574,76.193425 1.81377,19.262363 -30.40767,2.875216 -2.04286,-19.262763 z"
   id="22" /><path
   d="m 596.16834,132.2439 32.36027,-2.99088 1.60398,19.26237 -32.22661,2.75953 z"
   id="23" /><path
   d="m 646.74509,126.98845 22.50806,-1.49211 1.13875,17.59044 -22.57131,1.84507 z"
   id="24"
   style="stroke-width:0.814157" /><path
   d="m 627.48401,76.143825 32.12602,-3.109137 1.67972,18.391773 -31.68678,3.109141 z"
   id="25" /><path
   d="m 665.24013,172.76544 18.68821,1.03256 -0.0211,18.94882 -18.3444,-0.18533 z"
   id="26" /><path
   d="m 665.42532,195.08121 18.72071,0.0376 v 19.34291 l -18.82188,-0.0752 z"
   id="27"
   style="stroke-width:0.646557" /><path
   d="m 665.62782,216.49712 h 18.61994 l 0.20234,19.3018 -18.82228,-0.10307 z"
   id="29-5"
   style="display:inline;stroke-width:0.75514" /><path
   d="m 630.18355,246.19742 h 47.04895 l 0.51126,19.16585 -47.56021,-0.10235 z"
   id="29"
   style="stroke-width:1.19613" /><path
   d="m 630.4826,198.53045 18.72071,0.0373 v 19.20722 l -18.82188,-0.0747 z"
   id="27-5"
   style="display:inline;stroke-width:0.644285" /><path
   d="m 630.18355,164.9379 18.82148,0.34989 v 32.54753 l -18.82148,-0.34991 z"
   id="31"
   style="stroke-width:1.39423" /><path
   d="m 582.8662,163.0636 43.20645,0.61718 -0.45952,58.03032 -42.74693,-0.61718 z"
   id="32"
   style="stroke-width:2.79053" /><path
   d="m 608.76596,234.06324 18.68336,0.32386 -0.11459,30.12727 -18.56877,-0.32387 z"
   id="33"
   style="stroke-width:1.00947" /><path
   d="m 582.45994,234.19919 h 18.21113 v 29.85244 h -18.01745 z"
   id="34"
   style="stroke-width:1.30637" /><path
   d="m 602.41919,268.2199 26.10017,0.14659 v 18.76836 l -26.2021,-0.14659 z"
   id="35"
   style="stroke-width:0.64051" /><path
   d="m 562.65409,158.4248 18.60429,0.55798 v 105.0454 l -18.80217,-0.55569 z"
   id="36"
   style="stroke-width:1.73751" /><path
   d="m 562.79033,300.50019 h 18.03234 l 0.1981,18.72773 -18.23044,-0.0807 z"
   id="37"
   style="stroke-width:0.66255" /><path
   d="m 562.71128,349.23475 h 18.60509 v 19.43695 l -18.80296,-0.20673 z"
   id="38"
   style="stroke-width:0.749386" /><path
   d="m 562.63903,377.70461 h 18.60509 v 19.301 l -18.80296,-0.20528 z"
   id="38-2"
   style="display:inline;stroke-width:0.746761" /><path
   d="m 585.60174,377.50413 h 19.25741 v 19.38946 l -19.13075,-0.1882 z"
   id="40"
   style="stroke-width:0.809029" /><path
   d="m 614.3738,377.9986 h 18.34399 l -0.1951,18.77095 H 614.5689 Z"
   id="41"
   style="stroke-width:0.392974" /><path
   d="m 637.65004,377.99045 h 17.75295 v 18.51632 l -17.9438,-0.19084 z"
   id="42" /><path
   d="m 656.76411,378.01283 h 17.75295 l -0.19084,18.62275 -17.9438,-0.19807 z"
   id="43"
   style="stroke-width:1.01877" /><path
   d="m 675.52767,377.68604 h 18.09678 l -0.19665,19.19527 -17.89931,-0.19785 z"
   id="44"
   style="stroke-width:1.03357" /><path
   d="m 694.34105,377.68781 18.01745,0.20096 0.19368,18.69448 -18.01745,-0.20097 z"
   id="45"
   style="stroke-width:1.03379" /><path
   d="m 713.43977,377.55186 18.73872,0.20372 0.20363,19.15446 -19.14598,-0.61116 z"
   id="46_a"
   style="stroke-width:1.06726" /><path
   d="m 671.52307,397.26449 h 36.07765 v 18.13464 l -36.07765,-0.38169 z"
   id="60" /><path
   d="m 757.70042,382.75265 19.16245,-1.48391 3.60895,46.84483 -18.79635,1.19929 z"
   id="47"
   style="stroke-width:0.61993" /><path
   d="m 762.09366,432.58077 18.45681,-1.23612 1.78604,18.5996 -18.54249,1.47407 z"
   id="48"
   style="stroke-width:0.651653" /><path
   d="m 764.08659,452.57228 18.74499,-1.22354 1.38755,19.111 -18.71313,1.14393 z"
   id="49"
   style="stroke-width:1.06896" /><path
   d="m 765.58289,472.82951 18.47766,-1.35949 1.47031,19.11165 -18.63064,1.35949 z"
   id="50" /><path
   d="m 759.29396,495.31616 h 20.57101 l 0.22354,20.84654 -21.01809,0.22409 z"
   id="51"
   style="stroke-width:1.17279" /><path
   d="m 753.96669,515.89895 v -18.82898 l -18.68861,-0.20241 0.2009,18.62658 z"
   id="52"
   style="stroke-width:1.05665" /><path
   d="m 715.77667,497.13047 18.75825,-0.28409 v 19.03874 l -18.67946,-0.14205 z"
   id="53"
   style="stroke-width:0.783991" /><path
   d="m 695.66787,496.70842 h 18.61082 v 19.17569 l -18.75286,-0.14413 z"
   id="54"
   style="stroke-width:1.06031" /><path
   d="m 670.80915,496.96927 h 18.61082 v 19.17569 l -18.75285,-0.14413 z"
   id="54-6"
   style="display:inline;stroke-width:1.06031" /><path
   d="m 625.81434,496.98233 40.93866,0.14312 v 18.89662 h -40.93866 z"
   id="55"
   style="stroke-width:1.57302" /><path
   d="m 604.00249,496.67698 h 18.81011 v 19.16654 h -19.01232 z"
   id="56"
   style="stroke-width:1.06388" /><path
   d="m 622.96484,446.00006 18.55415,-0.35973 v 34.0407 l -18.42049,-0.0367 z"
   id="57"
   style="stroke-width:1.40068" /><path
   d="m 642.57126,461.08503 h 18.01949 v 18.89464 l -17.82578,-0.20096 z"
   id="58"
   style="stroke-width:1.03387" /><path
   d="m 661.68816,461.12283 18.92046,-0.20253 0.20339,19.24476 -18.92046,-0.40506 z"
   id="59-9"
   style="display:inline;stroke-width:1.06351" /><path
   d="m 686.3234,460.82888 18.54642,-0.20658 0.19937,19.62928 -18.54642,-0.41315 z"
   id="59"
   style="stroke-width:1.06341" /><path
   d="m 706.11035,460.45398 18.54642,-0.20658 0.19937,19.62928 -18.54642,-0.41315 z"
   id="59-6"
   style="display:inline;stroke-width:1.06341" /><path
   d="m 726.06326,460.78792 18.28682,-0.20305 0.20089,19.29504 -18.68861,-0.4061 z"
   id="61"
   style="stroke-width:1.05834" /><path
   d="m 635.38956,418.44909 104.15166,0.21802 -0.56284,20.49965 -103.58882,-0.43695 z"
   id="62"
   style="stroke-width:1.83558" /><path
   d="m 420.67414,501.1029 50.46697,0.20183 -0.27273,18.97775 -50.19424,-0.40451 z"
   id="62-7"
   style="display:inline;stroke-width:1.2294" /><path
   d="m 363.78966,359.70075 23.29682,0.16093 0.16402,23.66118 h -23.46084 z"
   id="64"
   style="stroke-width:1.20391" /><path
   d="m 345.34434,292.8504 21.15902,-0.84108 0.20537,43.65683 -21.36525,0.41966 z"
   id="65"
   style="stroke-width:1.53835" /><path
   d="m 522.85045,361.81353 18.94105,-0.24262 0.18565,25.48101 -18.94105,-0.24262 z"
   id="66"
   style="stroke-width:1.11209" /><path
   d="m 523.7222,326.63756 h 18.72572 l -0.18177,18.98161 -18.54395,-0.18424 z"
   id="67"
   style="stroke-width:0.958897" /><path
   d="m 468.34743,317.95499 19.03831,0.26058 -0.26436,18.7661 -18.90613,-0.26058 z"
   id="68"
   style="stroke-width:0.972484" /><path
   d="m 488.66724,292.75423 19.16794,-0.12852 -0.13402,18.89619 -19.03448,0.12906 z"
   id="69"
   style="stroke-width:0.972506" /><path
   d="m 722.79813,542.48474 19.16794,-0.12852 -0.13402,18.89619 -19.03448,0.12906 z"
   id="69-1"
   style="display:inline;stroke-width:0.972506" /><path
   d="m 488.53763,155.88226 49.43289,-4.56682 1.18638,16.24913 -49.21726,5.17889 z"
   id="69-1-9"
   style="display:inline;stroke-width:1.24491" /><path
   d="m 679.67191,69.247244 59.19042,-6.243424 2.28912,24.643516 -59.30896,5.927087 z"
   id="69-1-9-0"
   style="display:inline;stroke-width:1.48695" /><path
   d="m 564.13168,464.94229 22.0316,0.0102 0.15048,21.65264 -21.88281,0.48911 z"
   id="69-1-9-0-3"
   style="display:inline;stroke-width:1.48695" />&#10;  </g>&#10;</svg>
