<?xml version="1.0" encoding="UTF-8" standalone="no"?>
<svg
   width="1190.55pt"
   height="841.89001pt"
   viewBox="0 0 1190.55 841.89"
   version="1.2"
   id="svg125622"
   sodipodi:docname="plan_general-optimise.svg"
   inkscape:version="1.2.1 (9c6d41e410, 2022-07-14)"
   inkscape:export-filename="plan_selection.svg"
   inkscape:export-xdpi="51.25"
   inkscape:export-ydpi="51.25"
   inkscape:dataloss="true"
   xmlns:inkscape="http://www.inkscape.org/namespaces/inkscape"
   xmlns:sodipodi="http://sodipodi.sourceforge.net/DTD/sodipodi-0.dtd"
   xmlns="http://www.w3.org/2000/svg"
   xmlns:svg="http://www.w3.org/2000/svg">
  <sodipodi:namedview
     id="namedview125624"
     pagecolor="#ffffff"
     bordercolor="#666666"
     borderopacity="1.0"
     inkscape:showpageshadow="2"
     inkscape:pageopacity="0.0"
     inkscape:pagecheckerboard="0"
     inkscape:deskcolor="#d1d1d1"
     inkscape:document-units="pt"
     showgrid="false"
     inkscape:zoom="0.55419333"
     inkscape:cx="587.34017"
     inkscape:cy="505.23885"
     inkscape:window-width="1920"
     inkscape:window-height="1011"
     inkscape:window-x="0"
     inkscape:window-y="0"
     inkscape:window-maximized="1"
     inkscape:current-layer="layer1" />
  <defs
     id="defs63209" />
  <g
     inkscape:groupmode="layer"
     id="layer1"
     inkscape:label="selection"
     inkscape:export-filename="plan_selection.svg"
     inkscape:export-xdpi="51.25"
     inkscape:export-ydpi="51.25">
    <path
       d="m 289.37356,165.77819 23.22183,-2.36962 1.89584,24.32735 -23.22183,2.36962 z"
       id="path152963"
       inkscape:label="0" />
    <path
       d="m 366.93694,158.66931 23.22183,-2.2117 2.68549,23.37977 -23.85355,2.0531 z"
       id="path152965"
       inkscape:label="1" />
    <path
       d="m 415.5923,153.77212 -22.90663,2.21169 2.36963,23.22118 23.22184,-2.05377 z"
       id="path152967"
       inkscape:label="2" />
    <path
       d="m 440.97363,151.71835 -22.74804,2.2117 2.2117,22.90597 22.74804,-2.2117 z"
       id="path152969"
       inkscape:label="3" />
    <path
       d="m 477.62292,148.24321 -34.12173,3.31721 2.05377,23.22184 34.27966,-3.31788 z"
       id="path152971"
       inkscape:label="4" />
    <path
       d="m 502.90183,146.76764 -22.90598,2.2117 2.2117,22.90597 22.90531,-2.05377 z"
       id="path152973"
       inkscape:label="5" />
    <path
       d="m 527.54503,144.24008 -22.5901,2.36963 2.2117,23.0639 22.74738,-2.36963 z"
       id="path152975"
       inkscape:label="6" />
    <path
       d="m 552.66139,141.87045 -22.81161,2.33975 2.23395,23.12217 22.89882,-2.34563 z"
       id="path152977"
       inkscape:label="7" />
    <path
       d="m 577.54635,139.29513 -23.01096,2.34563 2.34609,23.12264 23.01049,-2.12275 z"
       id="path152979"
       inkscape:label="8" />
    <path
       d="m 602.71791,137.06118 -22.89929,2.12227 2.3461,23.23385 22.78714,-2.23395 z"
       id="path152981"
       inkscape:label="9" />
    <path
       d="m 618.20885,134.49174 88.95249,-8.71246 2.23395,23.12217 -88.91464,8.71292 z"
       id="path152983"
       inkscape:label="10" />
    <path
       d="m 731.99787,123.43319 -23.01049,2.23442 2.56897,23.23384 22.89882,-2.45777 z"
       id="path152985"
       inkscape:label="11" />
    <path
       d="m 300.06597,260.72194 45.02129,-5.21306 2.92272,23.4584 -45.81161,4.81823 z"
       id="path152987"
       inkscape:label="12" />
    <path
       d="m 369.41462,251.95444 -22.66842,2.92239 2.76446,23.0639 22.82667,-2.76479 z"
       id="path152989"
       inkscape:label="13" />
    <path
       d="m 402.32641,249.21609 22.90564,-2.13274 2.29067,23.3008 -22.98461,2.2117 z"
       id="path152991"
       inkscape:label="14" />
    <path
       d="m 438.92449,247.08368 61.5294,-5.8451 2.29066,23.22183 -61.45076,5.84478 z"
       id="path152993"
       inkscape:label="15" />
    <path
       d="m 536.44733,236.99922 43.36269,-2.92272 1.57997,23.14286 -43.36302,2.92239 z"
       id="path152995"
       inkscape:label="16" />
    <path
       d="m 614.82912,230.99618 22.82667,-1.50068 1.57964,23.14254 -22.90564,1.50068 z"
       id="path152997"
       inkscape:label="17" />
    <path
       d="m 662.61487,227.7576 -22.74771,1.50101 1.42171,23.37943 22.98494,-1.73758 z"
       id="path152999"
       inkscape:label="18" />
    <path
       d="m 687.65489,226.09899 -22.9846,1.65861 1.50067,23.14286 23.14254,-1.65893 z"
       id="path153001"
       inkscape:label="19" />
    <path
       d="m 712.69326,224.44038 -22.66874,1.42171 1.50068,23.14254 22.7477,-1.57964 z"
       id="path153003"
       inkscape:label="20" />
    <path
       d="m 713.87973,197.53195 23.14287,-1.57998 1.50067,23.14288 -22.9846,1.57963 z"
       id="path153005"
       inkscape:label="21" />
    <path
       d="m 782.4387,192.79269 -43.20474,2.92239 1.50068,23.14286 43.28409,-2.84375 -1.50068,-22.90564 z"
       id="path153007"
       inkscape:label="22" />
    <path
       d="m 834.88807,163.04017 22.98458,0.15793 -0.079,22.90597 -22.9056,0.079 z"
       id="path153009"
       inkscape:label="23" />
    <path
       d="m 893.07615,161.40799 44.62643,-4.50236 2.21174,23.22184 -44.54752,4.50202 z"
       id="path153011"
       inkscape:label="24" />
    <path
       d="m 945.99795,155.66795 44.7054,-4.3441 2.29072,23.30047 -44.70547,4.34443 z"
       id="path153013"
       inkscape:label="25" />
    <path
       d="m 1086.6229,126.4012 23.2338,-2.23349 9.6068,95.16887 -23.4581,2.01107 z"
       id="path153015"
       inkscape:label="26" />
    <path
       d="m 936.71865,215.7658 h 23.01052 v 63.44685 H 936.4953 Z"
       id="path153017"
       inkscape:label="27" />
    <path
       d="m 1016.3533,224.90525 h -22.5901 v 46.6016 l 22.906,-0.15793 z"
       id="path153019"
       inkscape:label="29" />
    <path
       d="m 1016.2835,273.23318 -22.67548,-0.11168 v 23.12263 l 22.67548,0.11168 z"
       id="path153021"
       inkscape:label="31" />
    <path
       d="m 1016.3947,298.88833 h -22.8988 l 0.22335,23.23432 22.78715,-0.11167 z"
       id="path153023"
       inkscape:label="32" />
    <path
       d="m 1005.0011,338.05982 h -39.98915 l 0.11167,23.23385 39.98918,-0.11168 z"
       id="path153025"
       inkscape:label="33" />
    <path
       d="m 936.63968,338.1715 22.89885,0.11167 0.11167,23.0105 -23.01053,0.11167 z"
       id="path153027"
       inkscape:label="34" />
    <path
       d="m 864.0039,208.06477 63.50423,0.15793 v 32.06796 L 864.0039,239.9748 Z"
       id="path153029"
       inkscape:label="35" />
    <path
       d="m 904.7607,243.71426 23.2212,0.15794 -0.15795,46.28573 L 904.7601,290 Z"
       id="path153031"
       inkscape:label="36" />
    <path
       d="M 887.38365,247.08501 H 864.3198 l 0.15787,57.65942 23.06393,-0.15859 z"
       id="path153033"
       inkscape:label="37" />
    <path
       d="m 904.91865,312.01059 h 23.2212 l -0.15795,46.28507 -22.9053,0.15793 z"
       id="path153035"
       inkscape:label="38" />
    <path
       d="m 887.2257,312.01059 -23.06318,0.15793 0.31583,46.44301 h 22.9053 z"
       id="path153037"
       inkscape:label="39" />
    <path
       d="m 893.52547,367.58222 37.43895,-0.079 0.079,25.1963 h -37.5969 z"
       id="path153039"
       inkscape:label="40" />
    <path
       d="M 834.2454,194.39282 H 857.31 l -0.63173,161.12946 h -22.7487 z"
       id="path153041"
       inkscape:label="41" />
    <path
       d="m 834.73725,494.93827 h 23.45715 v 23.23478 l -23.45715,-0.22335 z"
       id="path153043"
       inkscape:label="42" />
    <path
       d="m 834.73725,540.51256 23.2338,0.22335 v 23.23478 l -23.23478,-0.22334 z"
       id="path153045"
       inkscape:label="43" />
    <path
       d="m 861.09795,540.73591 h 23.2338 l -0.22335,23.4572 -23.01045,-0.22335 z"
       id="path153047"
       inkscape:label="44" />
    <path
       d="m 919.1835,541.40596 23.2338,0.4467 0.22335,23.68147 -23.2338,-0.4467 z"
       id="path153049"
       inkscape:label="45" />
    <path
       d="m 958.3635,522.8342 h 112.1589 v 42.33613 l -112.79063,-0.31586 z"
       id="path153051"
       inkscape:label="46" />
    <path
       d="m 984.80775,589.07543 h 114.38245 v 39.32054 H 984.80775 Z"
       id="path153053"
       inkscape:label="47" />
    <path
       d="m 924.35598,588.9175 47.04709,0.60462 v 22.78716 l -46.46955,0.44669 z"
       id="path153055"
       sodipodi:nodetypes="ccccc"
       inkscape:label="48" />
    <path
       d="m 876.86902,587.64744 23.06325,-0.15794 -0.15795,23.22184 -22.74735,-0.15793 z"
       id="path153057"
       inkscape:label="49" />
    <path
       d="m 850.32998,587.4895 h 22.90597 l 0.31583,23.06391 h -23.06385 z"
       id="path153155"
       inkscape:label="50" />
    <path
       d="m 852.85755,643.36081 23.06325,-0.15794 v 23.37977 l -22.90538,-0.15793 z"
       id="path153157"
       inkscape:label="51" />
    <path
       d="m 852.85755,668.16261 22.9053,-0.15859 v 23.37977 l -22.9053,-0.15794 z"
       id="path153159"
       inkscape:label="52" />
    <path
       d="m 918.25688,651.57521 41.86237,-0.15793 v 23.22183 l -41.70443,-0.31586 z"
       id="path153161"
       inkscape:label="53" />
    <path
       d="m 962.70232,651.57521 h 23.69558 v 23.0639 l -23.37975,0.15793 z"
       id="path153163"
       inkscape:label="54" />
    <path
       d="m 989.24137,651.41728 22.90593,0.15793 0.1579,23.22183 h -23.22177 z"
       id="path153165"
       inkscape:label="55" />
    <path
       d="m 1049.1119,652.36486 h 23.5377 l -0.158,23.37977 h -23.2219 z"
       id="path153167"
       inkscape:label="56" />
    <path
       d="m 1075.0733,652.47059 22.906,0.15794 0.158,23.22183 -23.064,-0.15793 z"
       id="path153169"
       inkscape:label="57" />
    <path
       d="m 1091.818,712.97344 h 23.2219 v 23.5377 h -23.2219 z"
       id="path153171"
       inkscape:label="58" />
    <path
       d="m 1089.6063,712.97278 0.3159,23.5377 -23.2212,-0.15794 0.1579,-23.22183 z"
       id="path153173"
       inkscape:label="59" />
    <path
       d="m 1126.7135,550.92381 24.0119,-2.2117 2.9223,44.78473 -24.0114,2.05377 z"
       id="path153193"
       inkscape:label="60" />
    <path
       d="m 1012.5696,716.08118 23.3791,-0.15792 v 23.69496 l -23.3798,-0.15793 z"
       id="path153175"
       inkscape:label="61" />
    <path
       d="m 942.43027,719.55633 45.9699,0.15794 -0.3159,23.53769 -45.654,-0.15793 z"
       id="path153177"
       inkscape:label="62" />
    <path
       d="m 773.1849,689.32936 h 24.9597 l 0.15795,25.74939 H 772.869 Z"
       id="path153179"
       inkscape:label="63" />
    <path
       d="m 735.90386,689.17143 25.43351,-0.15794 v 26.22319 h -24.95972 z"
       id="path153181"
       inkscape:label="64" />
    <path
       d="m 774.61748,518.73724 h 25.59149 v 25.90731 l -25.90732,-0.31585 z"
       id="path153183"
       inkscape:label="65" />
    <path
       d="m 726.91037,441.96417 h 25.59148 l -0.3159,26.53905 -25.59144,-0.31586 z"
       id="path153185"
       inkscape:label="66" />
    <path
       d="m 676.9909,408.15764 24.95973,-0.31586 v 26.85491 l -25.59146,-0.63172 z"
       id="path153187"
       inkscape:label="67" />
    <path
       d="m 504.91138,444.03632 h 25.02111 v 25.91496 h -24.90943 z"
       id="path153189"
       inkscape:label="68" />
    <path
       d="m 505.02306,402.8547 24.90943,-0.22335 0.11167,26.13784 -25.0211,-0.22335 z"
       id="path153191"
       inkscape:label="69" />
    <path
       d="m 242.392,303.82327 25.11701,0.94759 -0.94759,25.90733 -25.43287,-0.94825 z"
       id="path153198"
       inkscape:label="70" />
    <path
       d="m 1109.0318,760.25633 h 46.6017 v 23.2218 h -46.6017 z"
       id="path153195"
       inkscape:label="100" />
    <path
       d="m 534.36978,390.73697 137.7497,3.94895 -0.94759,87.98948 -138.69795,-5.05446 z"
       id="path153201"
       inkscape:label="conference" />
    <path
       d="m 616.33889,500.81822 -6.70232,162.19209 14.7466,17.87161 65.67939,2.68018 16.53339,-17.42492 1.7868,-122.87155 64.33933,1.7868 v -37.97859 z"
       id="path153203"
       inkscape:label="vip" />
    <path
       d="m 557.80852,585.26449 54.95679,2.23348 -2.23348,48.70118 -55.40537,-1.3401 z"
       id="path153205"
       inkscape:label="scene" />
    <path
       d="m 659.23861,329.99872 94.72214,4.91554 -1.78672,54.51009 -95.17077,-4.91553 z"
       id="path153207"
       inkscape:label="vestiaires_cosplay" />
    <path
       d="m 897.885,406.93058 0.4467,39.3196 -49.59547,0.22335 -0.22336,-39.31867 z"
       id="path153209"
       inkscape:label="vestiaires" />
    <path
       d="m 858.40628,486.37654 41.22997,3.63374 -0.3159,-43.12645 -40.91407,-0.15793 z"
       id="path153211"
       inkscape:label="toilettes" />
    <path
       d="m 567.91628,498.76522 48.18091,2.84342 -1.10584,36.56999 -49.28677,-2.13273 z"
       id="path153213"
       inkscape:label="toilettes_2" />
    <path
       d="m 887.28915,79.481025 203.78145,-19.904621 4.7393,39.176186 -205.04495,18.64117 z"
       id="path153215"
       inkscape:label="zone_restauration" />
    <path
       d="m 218.33756,506.34195 38.86033,2.21236 -4.73926,178.50586 -40.12378,-2.21103 z"
       id="path153217"
       inkscape:label="zone_restauration_2" />
  </g>
</svg>
